<?xml version="1.0" encoding="utf-8"?>
<!-- Generator: Adobe Illustrator 16.0.0, SVG Export Plug-In . SVG Version: 6.00 Build 0)  -->
<!DOCTYPE svg PUBLIC "-//W3C//DTD SVG 1.1//EN" "http://www.w3.org/Graphics/SVG/1.1/DTD/svg11.dtd">
<svg version="1.1" id="Layer_1" xmlns="http://www.w3.org/2000/svg" xmlns:xlink="http://www.w3.org/1999/xlink" x="0px" y="0px"
	 width="121.174px" height="148.872px" viewBox="0 0 121.174 148.872" enable-background="new 0 0 121.174 148.872"
	 xml:space="preserve">
<g>
	<path fill="#30383B" d="M0.049,125.105h1.027c0.832,3.377,2.277,5.09,3.916,5.09c1.102,0,1.885-0.783,1.885-1.983
		c0-1.541-1.199-2.765-2.961-4.55c-1.224-1.225-2.276-2.154-2.888-3.084C0.342,119.525,0,118.447,0,117.348
		c0-2.473,1.664-4.309,3.671-4.309c1.126,0,1.909,0.734,2.472,0.734c0.367,0,0.685-0.221,0.93-0.66h0.808v5.726H6.902
		c-0.735-3.278-1.861-4.92-3.329-4.92c-1.028,0-1.713,0.735-1.713,1.714c0,1.42,1.248,2.57,3.108,4.381
		c0.539,0.516,1.469,1.299,2.497,2.668c0.856,1.176,1.297,2.498,1.297,3.941c0,2.643-1.64,4.479-3.77,4.479
		c-1.443,0-2.349-0.832-2.961-0.832c-0.44,0-0.71,0.293-1.15,0.856H0.049V125.105z"/>
	<path fill="#30383B" d="M17.35,126.893c-0.221,2.691-1.664,4.234-3.819,4.234c-2.471,0-4.332-2.326-4.332-5.924
		c0-3.916,1.861-6.289,4.235-6.289s3.891,2.227,3.891,6.289v0.098h-5.164v0.441c0,2.74,0.686,4.137,2.007,4.137
		c1.224,0,2.104-1.053,2.374-2.986H17.35z M14.438,114.018c0.44-0.488,0.905-0.734,1.272-0.734c0.489,0,0.905,0.441,0.905,0.955
		c0,0.49-0.343,0.76-1.003,1.176l-3.598,2.201h-0.881L14.438,114.018z M14.584,124.322v-0.76c0-2.617-0.245-3.865-1.15-3.865
		c-0.881,0-1.297,1.467-1.297,4.381v0.244H14.584z"/>
	<path fill="#30383B" d="M18.303,120.186h-1.224v-0.979c1.713-0.905,2.643-2.618,2.912-5.261h0.956v5.261h2.128v0.979h-2.128v8.248
		c0,0.832,0.122,1.225,0.611,1.225c0.588,0,0.979-0.857,0.979-2.473h0.784v0.195c0,2.473-0.956,3.745-2.693,3.745
		c-1.639,0-2.325-0.88-2.325-2.741V120.186z"/>
	<path fill="#30383B" d="M26.084,131.127c-1.418,0-2.422-1.127-2.422-2.693c0-2.031,1.664-3.891,4.87-4.992V121.8
		c0-1.37-0.342-1.957-1.346-1.957c-0.44,0-0.856,0.171-1.175,0.44c0.637,0.221,1.004,0.711,1.004,1.322
		c0,0.758-0.563,1.297-1.42,1.297c-0.929,0-1.542-0.611-1.542-1.469c0-1.271,1.493-2.496,3.745-2.496
		c2.35,0,3.377,1.004,3.377,3.158v6.288c0,0.687,0.025,1.054,0.392,1.054s0.539-0.441,0.539-1.347h0.611v0.343
		c0,1.738-0.685,2.693-1.958,2.693c-0.954,0-1.591-0.539-2.08-1.615C27.994,130.588,27.088,131.127,26.084,131.127 M29.217,114.018
		c0.441-0.488,0.907-0.734,1.274-0.734c0.489,0,0.905,0.441,0.905,0.955c0,0.49-0.343,0.76-1.004,1.176l-3.598,2.201h-0.88
		L29.217,114.018z M26.354,127.945c0,1.076,0.294,1.615,0.881,1.615c0.661,0,1.297-0.832,1.297-2.203v-2.961
		C27.162,124.787,26.354,126.061,26.354,127.945"/>
	<path fill="#30383B" d="M32.959,114.043v-0.81c1.225-0.048,2.424-0.12,3.599-0.194v15.787c0,0.807,0.171,1.15,0.905,1.271v0.734
		h-4.504v-0.734c0.734-0.121,0.931-0.439,0.931-1.271v-13.513C33.89,114.481,33.742,114.141,32.959,114.043"/>
	<path fill="#30383B" d="M41.647,131.127c-2.178,0-4.234-2.474-4.234-6.097c0-3.62,2.031-6.116,4.234-6.116
		c2.228,0,4.259,2.496,4.259,6.116C45.906,128.653,43.851,131.127,41.647,131.127 M42.872,114.018
		c0.44-0.489,0.905-0.734,1.272-0.734c0.491,0,0.907,0.441,0.907,0.954c0,0.491-0.343,0.761-1.004,1.177l-3.598,2.2h-0.881
		L42.872,114.018z M40.327,125.008c0,3.549,0.22,5.287,1.321,5.287c1.102,0,1.346-1.738,1.346-5.287c0-3.598-0.22-5.361-1.346-5.361
		C40.546,119.646,40.327,121.434,40.327,125.008"/>
	<path fill="#30383B" d="M49.917,130.025c0.783-0.098,1.028-0.416,1.028-1.225v-13.486c0-0.807-0.245-1.15-1.028-1.248v-0.807h4.896
		c3.451,0,5.36,1.541,5.36,4.037c0,2.229-1.469,3.795-4.259,4.357c3.157,0.513,4.821,2.105,4.821,4.455
		c0,3.01-1.958,4.723-5.726,4.723h-5.092V130.025z M54.298,121.287c1.934,0,2.692-1.125,2.692-3.623
		c0-2.545-0.441-3.622-2.203-3.622c-0.637,0-0.783,0.196-0.783,0.905v6.34H54.298z M54.004,128.729c0,0.93,0.221,1.271,0.954,1.271
		c1.616,0,2.35-1.149,2.35-3.548c0-3.035-0.881-4.381-3.304-4.404V128.729z"/>
	<path fill="#30383B" d="M66.29,119.965v-0.758c1.248,0,2.397-0.025,3.476-0.123v9.742c0,0.832,0.146,1.15,0.93,1.248v0.807
		c-1.176,0.049-2.35,0.098-3.5,0.197l-0.05-1.738c-0.904,1.199-1.762,1.787-2.862,1.787c-1.886,0-2.425-1.225-2.425-3.867v-6.022
		c0-0.782-0.097-1.125-0.807-1.272v-0.758c1.248,0,2.398-0.025,3.476-0.123v8.444c0,1.272,0.244,1.909,1.053,1.909
		c0.93,0,1.542-0.907,1.542-2.668v-5.532C67.122,120.455,66.999,120.112,66.29,119.965"/>
	<path fill="#30383B" d="M75.44,113.994v-0.734c1.347-0.049,2.619-0.123,3.818-0.221v15.836c0,0.806,0.098,1.102,0.882,1.174v0.783
		c-1.028,0.049-2.179,0.097-3.452,0.221l-0.048-1.249c-0.784,0.882-1.566,1.323-2.301,1.323c-2.105,0-3.525-2.105-3.525-6.047
		c0-3.867,1.616-6.166,3.599-6.166c0.832,0,1.542,0.416,2.179,1.271v-4.92C76.591,114.41,76.346,114.115,75.44,113.994
		 M75.123,120.283c-1.248,0-1.42,1.518-1.42,4.676c0,3.23,0.172,4.845,1.493,4.845c0.808,0,1.396-0.808,1.396-2.274v-4.822
		C76.591,121.141,76.003,120.283,75.123,120.283"/>
	<path fill="#30383B" d="M82.681,131.127c-1.418,0-2.422-1.127-2.422-2.693c0-2.031,1.664-3.891,4.87-4.992V121.8
		c0-1.37-0.342-1.957-1.346-1.957c-0.44,0-0.856,0.171-1.175,0.44c0.637,0.221,1.004,0.711,1.004,1.322
		c0,0.758-0.563,1.297-1.42,1.297c-0.93,0-1.542-0.611-1.542-1.469c0-1.271,1.492-2.496,3.744-2.496
		c2.351,0,3.378,1.004,3.378,3.158v6.288c0,0.687,0.024,1.054,0.392,1.054s0.539-0.441,0.539-1.347h0.611v0.343
		c0,1.738-0.686,2.693-1.958,2.693c-0.954,0-1.592-0.539-2.08-1.615C84.591,130.588,83.685,131.127,82.681,131.127 M82.952,127.945
		c0,1.076,0.294,1.615,0.881,1.615c0.661,0,1.297-0.832,1.297-2.203v-2.961C83.759,124.787,82.952,126.061,82.952,127.945"/>
	<path fill="#30383B" d="M93.474,134.504v0.758H88.97v-0.758c0.733-0.123,0.931-0.441,0.931-1.273v-12.041
		c0-0.809-0.123-1.102-0.907-1.176v-0.807c1.126-0.025,2.277-0.074,3.452-0.172l0.048,1.199c0.784-0.881,1.592-1.297,2.326-1.297
		c2.104,0,3.5,2.105,3.5,6.045c0,3.867-1.616,6.145-3.598,6.145c-0.832,0-1.519-0.416-2.154-1.273v3.377
		C92.568,134.039,92.74,134.381,93.474,134.504 M94.012,129.756c1.248,0,1.42-1.519,1.42-4.676c0-3.23-0.172-4.82-1.493-4.82
		c-0.808,0-1.371,0.783-1.371,2.252v4.82C92.568,128.898,93.131,129.756,94.012,129.756"/>
	<path fill="#30383B" d="M107.203,126.893c-0.22,2.691-1.664,4.234-3.818,4.234c-2.472,0-4.332-2.326-4.332-5.924
		c0-3.916,1.86-6.289,4.234-6.289s3.892,2.227,3.892,6.289v0.098h-5.164v0.441c0,2.74,0.686,4.137,2.007,4.137
		c1.224,0,2.104-1.053,2.374-2.986H107.203z M104.437,124.322v-0.76c0-2.617-0.245-3.865-1.15-3.865
		c-0.881,0-1.297,1.467-1.297,4.381v0.244H104.437z"/>
	<path fill="#30383B" d="M108.668,126.182c0.465,2.668,1.688,4.113,3.084,4.113c0.808,0,1.42-0.588,1.42-1.42
		c0-0.662-0.441-1.346-1.248-1.885c-1.665-1.102-2.962-1.885-3.599-2.938c-0.344-0.562-0.514-1.224-0.514-1.934
		c0-1.836,1.272-3.206,2.838-3.206c0.956,0,1.642,0.563,2.081,0.563c0.27,0,0.515-0.195,0.661-0.539h0.758v4.308h-0.807
		c-0.636-2.325-1.591-3.524-2.717-3.524c-0.686,0-1.248,0.562-1.248,1.273c0,0.979,0.808,1.469,2.104,2.275
		c2.18,1.371,3.354,2.496,3.354,4.357c0,1.957-1.469,3.5-3.23,3.5c-1.15,0-1.812-0.637-2.252-0.637
		c-0.246,0-0.489,0.244-0.856,0.637h-0.686v-4.945H108.668z"/>
	<path fill="#30383B" d="M116.157,120.186h-1.225v-0.979c1.714-0.905,2.644-2.618,2.912-5.261h0.956v5.261h2.128v0.979H118.8v8.248
		c0,0.832,0.122,1.225,0.611,1.225c0.588,0,0.979-0.857,0.979-2.473h0.784v0.195c0,2.473-0.956,3.745-2.692,3.745
		c-1.64,0-2.325-0.88-2.325-2.741V120.186z"/>
	<path fill="#30383B" d="M18.417,148.262h0.476c0.652,0,0.788-0.258,0.788-1.031v-5.963c0-0.516-0.177-0.746-0.816-0.746h-0.448
		v-0.436c0.843-0.148,1.576-0.461,2.296-1.004h0.434v8.189c0,0.705,0.082,0.99,0.679,0.99h0.543v0.436h-3.952V148.262z"/>
	<path fill="#30383B" d="M25.06,145.369c-1.072,0-1.86-1.1-1.86-2.961c0-2.049,1.046-3.312,2.295-3.312
		c1.521,0,2.472,1.521,2.472,4.346c0,3.476-1.332,5.431-3.07,5.431c-0.909,0-1.561-0.625-1.561-1.371
		c0-0.543,0.367-0.923,0.828-0.923c0.475,0,0.829,0.354,0.829,0.814c0,0.381-0.232,0.652-0.68,0.854
		c0.123,0.138,0.285,0.206,0.489,0.206c0.992,0,1.467-1.223,1.522-3.709C25.916,145.165,25.495,145.369,25.06,145.369
		 M26.405,142.436c0-1.955-0.177-2.894-0.842-2.894c-0.611,0-0.788,0.681-0.788,2.147c0,2.051,0,2.975,0.68,2.975
		c0.311,0,0.679-0.244,0.909-0.693C26.391,143.21,26.405,142.693,26.405,142.436"/>
	<path fill="#30383B" d="M92.091,147.949c0.299-0.855,0.652-1.615,1.087-2.269c0.665-1.03,1.263-1.872,1.656-2.62
		c0.271-0.529,0.406-1.113,0.406-1.711c0-1.072-0.474-1.697-1.193-1.697c-0.64,0-1.168,0.475-1.224,1.127
		c0.122-0.041,0.245-0.068,0.341-0.068c0.435,0,0.786,0.354,0.786,0.789c0,0.475-0.352,0.842-0.813,0.842
		c-0.529,0-0.924-0.449-0.924-1.209c0-1.1,1.005-2.051,2.295-2.051c1.331,0,2.322,1.059,2.322,2.471c0,1.467-1.1,2.432-2.621,3.857
		c-0.407,0.381-0.882,1.019-1.316,1.889h2.281c0.747,0,0.991-0.232,1.154-1.088h0.394l-0.15,2.486h-4.48V147.949z"/>
	<path fill="#30383B" d="M99.101,148.262c0.666-0.069,0.829-0.23,0.829-0.801v-1.019h-2.418v-0.788l3.016-6.572h0.869v6.75h0.991
		v0.61h-0.991v1.073c0,0.502,0.203,0.691,0.773,0.746v0.436h-3.069V148.262z M99.93,143.713c0-0.721,0.054-1.535,0.148-2.445
		l-2.077,4.564h1.929V143.713z"/>
	<path fill="#30383B" d="M89.104,144.738v-0.666v-0.133h-2.026c-4.233-0.542-7.523-2.558-7.523-2.558s0.529,1.712,0.584,2.558
		H49.146c-2.102-0.835-3.764-2.496-3.764-2.496H30.845c0,0,0.982,1.407,2.381,2.052s2.555,0.822,2.556,0.822v0.176
		c-0.001,0-1.157,0.179-2.556,0.823c-1.399,0.644-2.381,2.051-2.381,2.051h14.538c0,0,1.662-1.661,3.764-2.496h30.992
		c-0.055,0.847-0.584,2.559-0.584,2.559s3.29-2.017,7.523-2.559h2.026V144.738z"/>
	<polygon fill="#FFFFFF" points="63.153,97.003 53.833,88.207 50.852,79.707 46.23,81.72 46.081,83.955 38.082,86.771 
		36.613,84.256 26.481,86.771 24.014,89.771 22.3,82.168 24.463,81.57 23.046,75.458 27.369,71.73 27.817,65.99 25.729,64.499 
		27.613,62.518 28.411,59.778 22.598,53.093 20.511,54.361 19.467,49.589 20.511,49.739 16.932,40.646 18.199,31.027 16.932,25.361 
		20.213,23.2 25.803,23.871 29.084,21.71 36.208,20.472 40.042,20.665 37.732,14.776 48.317,13.881 48.839,19.994 54.281,12.016 
		65.763,21.26 64.271,23.573 65.613,24.989 66.88,23.944 70.533,27.895 67.402,29.76 75.156,36.767 78.436,35.649 80.673,38.11 
		86.264,36.991 89.768,43.03 89.916,46.31 102.366,43.848 102.739,45.937 101.173,47.427 101.323,51.379 104.306,55.106 
		104.306,61.657 98.192,62.71 94.241,69.271 90.737,68.973 86.264,75.012 82.908,73.521 77.093,82.915 74.355,90.376 71.651,94.096 
		65.389,95.214 	"/>
	<path fill="#E40520" d="M14.802,66.823l0.486,0.347l2.597,1.853l-0.223,0.194l-3.77,3.252l0.755,3.256l-2.117,0.584l1.73,7.669
		l4.26,18.897l5.395-0.007l6.465-7.86l0.734-0.895l1.492-0.369l1.788,3.064l6.427-2.26l5.788-2.04l0.11,0.315l1.457,1.375
		l9.318,8.798l5.211,4.919l5.597-4.479l0.6-0.479l4.198-0.748l3.266-0.584l1.951-2.684l2.704-3.719l0.677-0.928l0.396-1.082
		l2.449-6.674l1.592-2.567l2.821,1.252l3.933-5.307l1.735-2.343l4.031,0.343l2.646-4.396l2.007-3.329l2.396-0.414l6.845-1.18v-6.942
		l-0.914-12.807l-0.78-4.364l-0.375-2.087l-1.476-8.264l-8.235,1.629l-5.102,1.008l-2.273-3.918l-2.959-5.101l-6.959,1.66
		l-3.184-3.106l-3.708-4.008l-0.99-1.074l1.115-1.732l-5.777-4.652l-11.48-9.244L52.501,0l-3.803,5.578l-1.075,0.089L37.038,6.563
		l-11.016,0.93l2.344,5.976l-4.577,1.86l-2.593-0.313l-2.997-0.36l-2.52,1.662l-3.282,2.162l-4.749,3.129l1.241,5.55L9.837,31.4
		l-1.076,8.168l-0.279,2.113l0.781,1.981l1.059,2.691l1.093,4.999l1.045,4.77l1.846,8.435L14.802,66.823z M54.281,12.016
		l11.482,9.244l-1.492,2.313l1.343,1.416l1.267-1.045l3.653,3.95l-3.131,1.866l7.753,7.006l3.28-1.117l2.237,2.46l5.591-1.118
		l3.504,6.039l0.146,3.28l12.451-2.462l0.373,2.088l-1.565,1.491l0.149,3.951l2.983,3.728v6.551l-6.114,1.053l-3.951,6.56
		l-3.504-0.297l-4.473,6.039l-3.356-1.492l-5.814,9.395l-2.738,7.461l-2.704,3.72l-6.262,1.118l-2.236,1.789l-9.32-8.796l-2.981-8.5
		L46.23,81.72l-0.149,2.235l-7.999,2.815l-1.469-2.515l-10.132,2.515l-2.467,3L22.3,82.168l2.163-0.597l-1.417-6.113l4.323-3.729
		l0.448-5.739l-2.088-1.491l1.884-1.982l0.798-2.739l-5.813-6.685l-2.087,1.267l-1.044-4.771l1.044,0.15l-3.579-9.094l1.268-9.618
		l-1.268-5.666l3.281-2.161l5.591,0.671l3.28-2.161l7.124-1.238l3.834,0.193l-2.31-5.89l10.585-0.895l0.523,6.114L54.281,12.016"/>
	<polygon fill="#00604F" points="56.72,66.323 50.962,57.559 40.856,47.516 45.525,47.481 47.381,52.183 49.236,52.95 
		47.957,46.683 48.788,39.262 53.586,39.966 60.559,44.059 67.275,51.738 68.171,55.128 62.03,57.43 62.86,61.969 	"/>
</g>
</svg>
